<svg t="1732094385428" class="icon" viewBox="0 0 1024 1024" version="1.1" xmlns="http://www.w3.org/2000/svg" p-id="2283" width="200" height="200"><path d="M0 0h1024v1024H0z" fill="#FFFFFF" p-id="2284"></path><path d="M158.769 898.087L346.753 710.11v81.25a22.658 22.658 0 1 0 45.316 0V677.989a45.321 45.321 0 0 0-45.311-45.317H233.382a22.659 22.659 0 1 0 0 45.318h81.252l-187.98 187.98a22.71 22.71 0 1 0 32.116 32.119z" fill="#333333" p-id="2285"></path><path d="M655.658 813.946a22.66 22.66 0 0 0 22.658-22.656v-81.244l187.98 187.98a22.658 22.658 0 1 0 32.041-32.045l-187.98-187.98h81.327a22.659 22.659 0 1 0 0-45.318H678.316a45.321 45.321 0 0 0-45.317 45.312v113.3a22.661 22.661 0 0 0 22.659 22.653zM678.242 391.979H791.61a22.659 22.659 0 1 0 0-45.317h-81.247L898.34 158.679a22.657 22.657 0 0 0-32.042-32.042l-187.98 187.979v-81.325a22.659 22.659 0 1 0-45.317 0v113.371a45.208 45.208 0 0 0 45.241 45.317zM314.543 346.734h-81.252a22.659 22.659 0 1 0 0 45.318h113.371a45.321 45.321 0 0 0 45.316-45.311V233.363a22.658 22.658 0 0 0-45.316 0v81.25L158.678 126.636a22.657 22.657 0 0 0-32.042 32.042z" fill="#333333" p-id="2286"></path></svg>